<!DOCTYPE svg PUBLIC "-//W3C//DTD SVG 1.1//EN" "http://www.w3.org/Graphics/SVG/1.1/DTD/svg11.dtd">
<!-- Uploaded to: SVG Repo, www.svgrepo.com, Transformed by: SVG Repo Mixer Tools -->
<svg version="1.1" id="Layer_1" xmlns="http://www.w3.org/2000/svg" xmlns:xlink="http://www.w3.org/1999/xlink" viewBox="0 0 512 512" xml:space="preserve" width="800px" height="800px" fill="#0e1581" stroke="#0e1581">
<g id="SVGRepo_bgCarrier" stroke-width="0"/>
<g id="SVGRepo_tracerCarrier" stroke-linecap="round" stroke-linejoin="round"/>
<g id="SVGRepo_iconCarrier"> <path d="M358.584,512H153.415c-21.862-0.061-39.571-17.77-39.632-39.632V39.632C113.845,17.77,131.553,0.061,153.415,0h205.168 c21.862,0.061,39.571,17.77,39.632,39.632v432.736C398.146,494.227,380.443,511.93,358.584,512z"/> <rect x="132.542" y="40.398" style="fill:#fff6bd;" width="246.911" height="403.723"/> <g> <path style="fill:#4fc31d;" d="M293.032,24.424h-50.528c-2.278-0.004-4.124-1.85-4.128-4.128l0,0 c0.004-2.278,1.85-4.123,4.128-4.128h50.528c2.278,0.004,4.123,1.85,4.128,4.128l0,0C297.155,22.574,295.31,24.42,293.032,24.424z"/> <circle style="fill:#4fc31d;" cx="218.969" cy="20.296" r="4.128"/> <path style="fill:#4fc31d;" d="M256,497.6c-10.781,0-19.52-8.74-19.52-19.52c0-10.781,8.74-19.52,19.52-19.52 c10.78,0,19.52,8.74,19.52,19.52l0,0C275.507,488.855,266.774,497.588,256,497.6z M256,462.553c-8.571,0-15.52,6.949-15.52,15.52 c0,8.571,6.949,15.52,15.52,15.52s15.52-6.949,15.52-15.52l0,0c0.008-8.581-6.939-15.543-15.52-15.553l0,0V462.553z"/> </g> <g> <rect x="197.378" y="158.637" style="fill:#51f2f5;" width="14.36" height="56.451"/> <path style="fill:#51f2f5;" d="M256,100.112l-68.536,45.944h137.072L256,100.112z M256,134.024c-4.18,0-7.568-3.388-7.568-7.568 c0-4.18,3.388-7.568,7.568-7.568c4.18,0,7.568,3.388,7.568,7.568l0,0c0.004,4.18-3.381,7.571-7.56,7.576c-0.003,0-0.005,0-0.008,0 L256,134.024L256,134.024z"/> <rect x="182.327" y="228.357" style="fill:#51f2f5;" width="147.351" height="14.36"/> <path style="fill:#51f2f5;" d="M253.92,210.4v-5.888c-3.154-0.012-6.243-0.901-8.92-2.568l1.4-3.912 c2.502,1.624,5.417,2.493,8.4,2.504c4.136,0,6.936-2.4,6.936-5.712s-2.272-5.192-6.592-6.936c-5.944-2.328-9.6-5.016-9.6-10.088 c0.09-4.925,3.892-8.982,8.8-9.392v-5.888h3.616v5.656c2.661,0.02,5.272,0.723,7.584,2.04l-1.464,3.848 c-2.219-1.324-4.76-2.01-7.344-1.984c-4.496,0-6.184,2.68-6.184,5.016c0,3.032,2.16,4.552,7.2,6.648 c6.008,2.448,9.04,5.48,9.04,10.672c-0.108,5.153-4.061,9.405-9.192,9.888v6.096h-3.678V210.4z"/> <rect x="219.634" y="158.637" style="fill:#51f2f5;" width="14.36" height="56.451"/> <rect x="278.005" y="158.637" style="fill:#51f2f5;" width="14.36" height="56.451"/> <rect x="300.26" y="158.637" style="fill:#51f2f5;" width="14.36" height="56.451"/> </g> <rect x="93.872" y="283.173" style="fill:#fff6bd;" width="324.246" height="97.228"/> <path style="fill:#4fc31d;" d="M414.128,287.201v89.208H97.871v-89.208H414.128 M422.128,279.2H89.872v105.208h332.256V279.2z"/> <g> <path style="fill:#fa4205;" d="M133.912,311.625c3.777-0.634,7.603-0.935,11.432-0.895c4.295-0.411,8.609,0.553,12.32,2.752 c2.827,1.662,4.537,4.721,4.472,8c-0.118,4.327-3.004,8.087-7.152,9.32v0.136c5.066,1.03,8.7,5.494,8.68,10.664 c0.06,3.44-1.472,6.714-4.152,8.872c-4.689,3.191-10.361,4.609-16,4c-3.222,0.012-6.441-0.178-9.64-0.569L133.912,311.625z M141.703,328.6h4c5.432,0,8.496-2.544,8.496-6.184c0-4-3.064-5.872-8.048-5.872c-1.498-0.053-2.997,0.055-4.472,0.32 L141.703,328.6z M141.703,348.4c1.38,0.142,2.766,0.204,4.152,0.184c5.048,0,9.512-1.912,9.512-7.2 c0-4.984-4.344-7.024-9.768-7.024h-3.896v14.04H141.703z"/> <path style="fill:#fa4205;" d="M179.103,341.881l-3.704,12.192h-8.096l13.792-43.032h10.025l13.976,43.032h-8.424l-3.872-12.192 H179.103z M191.431,335.945l-3.392-10.592c-0.8-2.616-1.528-5.552-2.168-8.048h-0.136c-0.632,2.496-1.272,5.496-2.04,8.048 l-3.32,10.592H191.431z"/> <path style="fill:#fa4205;" d="M211.088,354.072V311.04H220l11.112,18.456c2.775,4.626,5.23,9.437,7.344,14.4h0.128 c-0.504-5.752-0.704-11.304-0.704-17.872V311.04h7.28v43.032h-8.088l-11.2-18.896c-2.849-4.811-5.429-9.776-7.728-14.872 l-0.184,0.064c0.312,5.552,0.384,11.24,0.384,18.328v15.384L211.088,354.072z"/> <path style="fill:#fa4205;" d="M254.231,311.04h7.792v19.792h0.192c1.016-1.656,2.104-3.2,3.128-4.656l11.2-15.136h9.704 l-14.808,18.32l15.768,24.712h-9.16l-12.192-19.728l-3.832,4.592v15.136h-7.792L254.231,311.04z"/> <path style="fill:#fa4205;" d="M299.2,311.04v43.032h-7.849V311.04H299.2z"/> <path style="fill:#fa4205;" d="M308.232,354.072V311.04h8.936l11.112,18.456c2.776,4.626,5.23,9.437,7.344,14.4h0.128 c-0.504-5.752-0.704-11.304-0.704-17.872V311.04h7.28v43.032h-8.112l-11.2-18.896c-2.849-4.811-5.429-9.776-7.728-14.872 l-0.184,0.064c0.312,5.552,0.384,11.24,0.384,18.328v15.384L308.232,354.072z"/> <path style="fill:#fa4205;" d="M385.856,352.096c-4.452,1.558-9.131,2.369-13.848,2.4c-6.159,0.404-12.225-1.663-16.856-5.744 c-4.098-4.224-6.27-9.953-6-15.832c-0.321-12.071,9.206-22.116,21.277-22.436c0.89-0.023,1.781,0.007,2.668,0.092 c3.907-0.108,7.796,0.586,11.424,2.04l-1.72,6.32c-3.087-1.313-6.422-1.943-9.776-1.848c-7.921-0.709-14.918,5.139-15.625,13.06 c-0.072,0.797-0.076,1.599-0.014,2.396c-0.754,7.824,4.977,14.777,12.801,15.531c0.712,0.069,1.428,0.083,2.143,0.044 c2.018,0.103,4.037-0.198,5.936-0.888v-10.712h-7.6v-6.191h15.2L385.856,352.096z"/> </g> </g>
</svg>